PathFileType	4	(X/Y/Z)	walk-thru1-3-TP.trc
DataRate	CameraRate	NumFrames	NumMarkers	Units	OrigDataRate	OrigDataStartFrame	OrigNumFrames
120.00	120.00	       5	60	mm	120.00	523	       597
Frame#	Time	Top.Head			Front.Head			Rear.Head			Jaw			C7			R.Clavicle			L.Clavicle			R.Shoulder			L.Shoulder			R.Scapula			L.Scapula			R.Scap.Inf			R.Biceps.Lateral			R.Elbow			R.Elbow.Medial			R.Forearm			R.Ulna			R.Radius			R.Wrist			R.Thumb.M1			R.Thumb.M2			R.Thumb.M3			R.Finger3.M1			R.Finger3.M2			R.Finger3.M3			L.Biceps.Lateral			L.Elbow			L.Elbow.Medial			L.Forearm			L.Ulna			L.Radius			L.Wrist			L.Thumb.M1			L.Thumb.M2			L.Thumb.M3			L.Finger3.M1			L.Finger3.M2			L.Finger3.M3			V.Sacral			R.ASIS			L.ASIS			R.Thigh			R.Thigh.Front			R.Knee			R.Knee.Medial			R.Shank			R.Ankle			R.Ankle.Medial			R.Heel			R.Toe			R.MedFoot			L.Thigh			L.Knee			L.Knee.Medial			L.Shank			L.Ankle			L.Ankle.Medial			L.Heel			L.Toe			L.MedFoot			V_mid_ASIS			V_R_Knee_JC			V_L_Knee_JC			V_R_Elbow_JC			V_L_Elbow_JC			V_R_Ankle_JC			V_L_Ankle_JC			V_R_Wrist_JC			V_L_Wrist_JC			V_R_ScaTrpz_1stMC_JC			V_R_1stMC_1stPP_JC			V_R_1stPP_1stDP_JC			V_R_LunCap_3rdMC_JC			V_R_3rdMC_3rdPP_JC			V_R_3rdPP_3rdMP_JC			V_R_3rdMP_3rdDP_JC			V_L_ScaTrpz_1stMC_JC			V_L_1stMC_1stPP_JC			V_L_1stPP_1stDP_JC			V_L_LunCap_3rdMC_JC			V_L_3rdMC_3rdPP_JC			V_L_3rdPP_3rdMP_JC			V_L_3rdMP_3rdPP_JC			V_ROOT_JC			V_R_Hip_JC			V_L_Hip_JC			V_R_GlenHum_JC			V_L_GlenHum_JC			V_ForeHead_Ctr			V_Vertex			V_Sagit_Lambdoid_Suture			V_R_FrontoTemp			V_L_FrontoTemporal			V_R_ParietalOccip			V_L_ParietalOcciptal			V_R_Temporal			V_L_Temporal			V_mid_FrontRearHead			V_mid_RLGlenHumCtrs			V_C7_vert			V_C1_vert			V_Mid_Hip			
		X1	Y1	Z1	X2	Y2	Z2	X3	Y3	Z3	X4	Y4	Z4	X5	Y5	Z5	X6	Y6	Z6	X7	Y7	Z7	X8	Y8	Z8	X9	Y9	Z9	X10	Y10	Z10	X11	Y11	Z11	X12	Y12	Z12	X13	Y13	Z13	X14	Y14	Z14	X15	Y15	Z15	X16	Y16	Z16	X17	Y17	Z17	X18	Y18	Z18	X19	Y19	Z19	X20	Y20	Z20	X21	Y21	Z21	X22	Y22	Z22	X23	Y23	Z23	X24	Y24	Z24	X25	Y25	Z25	X26	Y26	Z26	X27	Y27	Z27	X28	Y28	Z28	X29	Y29	Z29	X30	Y30	Z30	X31	Y31	Z31	X32	Y32	Z32	X33	Y33	Z33	X34	Y34	Z34	X35	Y35	Z35	X36	Y36	Z36	X37	Y37	Z37	X38	Y38	Z38	X39	Y39	Z39	X40	Y40	Z40	X41	Y41	Z41	X42	Y42	Z42	X43	Y43	Z43	X44	Y44	Z44	X45	Y45	Z45	X46	Y46	Z46	X47	Y47	Z47	X48	Y48	Z48	X49	Y49	Z49	X50	Y50	Z50	X51	Y51	Z51	X52	Y52	Z52	X53	Y53	Z53	X54	Y54	Z54	X55	Y55	Z55	X56	Y56	Z56	X57	Y57	Z57	X58	Y58	Z58	X59	Y59	Z59	X60	Y60	Z60	

523	4.350	-897.95428	-31.95070	1760.60095	-991.28210	-9.09191	1635.60852	-764.50720	-43.64745	1694.03320	-893.90851	-19.34762	1465.35852	-665.89624	-31.63226	1567.43127	-759.53363	88.71978	1488.55176	-771.05530	-155.56808	1473.95471	-704.32678	193.16664	1479.85608	-726.92615	-260.61792	1474.73206	-596.62726	61.24369	1479.80762	-597.64893	-130.07169	1473.01245	-564.73511	65.02547	1390.55835	-659.75378	225.48976	1343.43799	-589.99835	254.52771	1163.25037	-594.07654	158.67747	1153.35303	-684.87976	249.72255	1095.17004	-622.22595	260.90158	962.15070	-729.98975	247.49681	926.51404	-734.16229	294.53470	900.03448	-746.07935	243.04141	876.66626	-740.54462	217.99335	827.96216	-730.16949	220.22203	777.13409	-744.20349	314.01587	817.24146	-699.60345	280.50186	757.80304	-678.82184	230.94174	794.51782	-667.91998	-290.82941	1331.61865	-596.37006	-308.57404	1165.68347	-581.50092	-212.62695	1139.54663	-674.84656	-308.15024	1079.61707	-607.77594	-334.56210	978.79822	-700.87433	-316.70914	916.74756	-677.39197	-358.11578	886.28400	-721.07965	-317.70004	860.32166	-738.72137	-294.58755	813.98804	-743.48590	-298.18805	764.30219	-697.27466	-371.89624	787.47791	-694.27643	-343.90631	727.97266	-689.16937	-284.19144	726.93970	-539.13898	-27.37997	1118.31628	-731.16455	159.68269	1055.32910	-727.99872	-190.60495	1058.08801	-763.16797	148.42949	684.06592	-849.57782	54.35078	600.31885	-815.09943	116.47083	534.32349	-797.44073	6.48378	531.25964	-837.41254	75.49033	317.74893	-759.60931	110.16336	84.55260	-773.28210	8.94544	105.51917	-698.16608	63.98927	47.19500	-931.07184	73.24249	44.15231	-869.22504	35.03831	80.33508	-669.45526	-193.42670	669.75879	-650.87036	-182.51112	517.92920	-640.67480	-68.87640	499.43784	-557.15100	-138.90471	325.84573	-350.19659	-148.23080	158.52388	-413.16959	-60.19613	159.53040	-306.96906	-74.31644	146.80118	-488.23404	-141.31227	40.28807	-460.15601	-103.50627	103.28240																																																																																																																															
524	4.358	-903.93658	-30.47250	1763.51819	-997.38361	-8.27948	1636.43738	-770.18317	-42.31106	1694.30164	-900.71063	-18.23947	1466.87769	-673.19543	-30.40849	1568.37610	-765.79395	90.86245	1488.86084	-776.90387	-154.07024	1475.17480	-711.95020	193.99902	1481.71558	-732.59863	-259.19485	1475.60571	-603.04059	64.45793	1481.27478	-602.45795	-128.74896	1473.91504	-570.75012	68.01146	1392.18213	-667.53351	229.08159	1345.33716	-597.60651	256.64630	1163.70789	-600.68048	159.64711	1154.05688	-691.25946	253.09363	1096.15771	-629.37274	264.10153	963.57159	-738.77820	250.60043	928.07202	-743.15863	296.81461	900.49329	-753.98828	245.16779	879.31665	-747.66736	216.73158	832.99969	-735.00323	216.67624	781.17999	-752.35669	311.98471	816.95245	-707.52246	277.17603	758.21936	-685.23474	228.51868	797.75793	-672.27979	-289.31345	1332.27161	-600.32190	-304.71649	1167.47266	-587.18469	-211.05609	1141.72632	-678.26276	-306.25275	1080.88745	-610.31323	-331.70673	980.47296	-703.53961	-313.48660	918.22388	-679.74023	-355.82251	886.77063	-723.44916	-313.90482	860.76941	-740.50043	-291.05197	815.19128	-743.70667	-294.30988	764.26141	-697.86804	-370.22568	786.84778	-692.89532	-339.10730	728.05731	-688.30634	-278.58759	728.63226	-544.72913	-25.67419	1119.19800	-737.90240	160.65195	1055.55444	-733.63232	-190.11227	1060.56445	-766.75519	148.97179	684.25043	-852.51379	54.87899	599.99768	-817.70233	116.88482	534.16107	-800.14227	7.06802	531.71393	-835.76025	75.62434	316.57428	-759.87665	109.98165	84.25787	-773.22101	8.79087	105.48175	-698.31458	63.99211	47.27890	-931.03033	72.61952	43.70322	-869.36792	34.89773	79.98517	-680.00568	-192.66118	670.44904	-662.73169	-183.07735	518.39063	-653.22357	-70.44217	499.11432	-565.70673	-139.92361	326.81064	-356.30618	-149.11246	163.80112	-419.47849	-61.74450	163.39545	-313.34436	-74.69482	154.03117	-488.65891	-141.16310	40.28816	-465.64459	-104.16034	104.26127																																																																																																																															
525	4.367	-909.57233	-29.85542	1763.41968	-1003.26758	-6.41464	1637.59155	-775.64996	-41.10346	1694.73767	-907.24884	-17.20070	1467.20898	-677.87482	-28.65359	1568.71021	-772.19360	92.18372	1489.75916	-781.96472	-152.58081	1476.36035	-718.22992	196.55766	1482.63403	-737.48047	-258.05252	1476.35876	-609.40997	67.14892	1481.96814	-608.67847	-126.76793	1475.30212	-576.91949	69.06099	1392.65063	-673.59998	230.74428	1345.49072	-604.36572	260.54916	1165.31177	-610.79926	161.80380	1154.65283	-699.20557	256.68436	1096.90076	-637.63391	265.48322	963.48218	-745.76709	251.89594	929.38495	-750.90649	298.41058	901.05286	-761.59863	246.19916	881.80670	-754.88538	216.26129	836.04822	-743.72705	213.10594	785.70288	-759.32764	310.30286	816.76990	-716.18683	271.22708	759.63501	-693.96118	226.73595	799.90717	-676.55756	-287.28397	1333.76135	-604.56616	-303.74857	1168.37622	-591.94373	-209.14574	1144.05115	-682.02216	-303.08289	1082.05127	-613.72046	-329.55603	981.87286	-705.36951	-311.17239	918.69934	-682.24060	-352.30923	887.45673	-724.37128	-312.62802	861.48651	-741.39825	-287.70355	815.39337	-744.28833	-292.07040	764.45587	-699.51666	-366.45682	787.30200	-692.61664	-335.56442	727.85840	-689.10724	-276.28860	728.24109	-550.79602	-23.90663	1120.13647	-745.66571	162.56708	1056.25073	-738.87024	-188.48398	1061.39600	-771.57526	149.77029	684.47040	-855.42999	56.69915	599.34717	-819.83154	118.13968	533.51373	-802.31885	7.47726	531.32593	-839.15546	75.23318	316.73404	-760.72174	109.97857	84.06850	-773.59308	8.76520	105.48279	-698.47083	64.69819	47.30584	-931.40320	73.03600	43.60297	-869.51166	34.79501	79.77773	-689.61304	-192.56265	671.99707	-674.10126	-183.67789	518.48590	-665.88995	-69.80535	498.73294	-575.43732	-141.31253	328.60840	-362.96933	-149.77451	168.96681	-426.34116	-63.41891	167.31712	-320.46121	-75.42780	161.43384	-489.71356	-140.58350	40.31018	-469.38684	-106.07139	106.24999																																																																																																																															
526	4.375	-914.19269	-26.71716	1764.88330	-1008.07599	-6.59149	1639.52747	-783.97241	-42.02374	1696.26257	-912.89600	-14.32491	1468.89282	-683.50146	-28.21931	1570.78015	-778.43738	93.58560	1490.40466	-787.67828	-151.09476	1477.42603	-726.01343	197.50844	1482.03040	-741.95764	-255.30902	1478.57910	-614.61133	68.26273	1482.48059	-613.58704	-125.43173	1475.73315	-582.56189	71.11855	1392.53760	-680.59473	233.21791	1345.44104	-611.80249	262.88861	1166.29468	-613.42584	165.80894	1155.57593	-706.92633	260.29462	1098.26233	-644.38782	268.87946	964.40045	-754.47528	255.30565	931.56451	-758.51300	300.81097	901.68597	-769.63208	247.34686	884.57129	-763.77362	215.53236	840.50287	-751.41913	212.31462	789.33966	-768.00238	309.33728	816.18475	-725.08636	267.29163	762.62390	-700.90527	223.41008	802.93170	-679.76904	-285.87204	1334.70789	-608.03278	-300.10898	1169.35254	-594.40332	-205.37363	1145.07703	-685.63464	-300.67752	1082.86670	-617.31854	-326.49002	982.34595	-708.30011	-307.70337	919.16705	-683.78033	-349.74539	888.29535	-727.38812	-308.97900	861.29608	-743.20557	-284.86978	815.61176	-746.13110	-289.47980	764.75519	-699.71021	-362.33038	787.57349	-697.27448	-332.49829	727.88812	-689.22302	-272.74899	730.13239	-555.90509	-21.26709	1120.63379	-751.08984	163.95111	1056.76880	-743.57904	-186.99130	1062.11169	-775.73700	150.98177	684.71185	-858.19916	57.23505	598.84857	-822.52576	118.90669	533.74982	-804.72491	8.66850	530.83386	-840.79742	75.86172	316.66800	-760.99725	110.14822	83.84436	-773.80591	8.91964	105.72826	-698.47119	64.82587	47.11730	-932.26282	72.80301	43.37886	-869.55585	35.01979	79.75748	-700.28607	-192.75925	671.58295	-686.85767	-184.00691	518.85004	-679.56970	-70.45876	498.24228	-585.34760	-142.32825	329.33810	-369.99463	-150.30623	175.04568	-433.72824	-64.20487	170.41066	-327.68805	-76.35205	169.11150	-490.97968	-139.81111	40.70206	-474.65872	-105.30643	107.14606																																																																																																																															
527	4.383	-919.96960	-26.51337	1765.09705	-1013.53143	-5.07143	1640.23071	-786.47650	-41.62842	1697.26733	-918.02112	-13.18371	1468.82202	-689.19238	-26.03753	1571.62683	-783.91711	95.28772	1490.79980	-792.91254	-149.08925	1478.20435	-732.25745	199.61389	1482.81958	-747.66748	-254.69405	1479.28125	-620.67297	70.95023	1483.37891	-619.59949	-122.18707	1477.10474	-588.69202	73.80863	1395.02844	-688.83716	235.16432	1346.73926	-619.16809	265.71307	1166.36267	-619.97418	168.67610	1155.61292	-713.86786	264.70700	1099.34937	-651.80035	270.72488	964.74011	-762.75983	258.49908	932.56677	-767.50146	303.53616	902.48688	-777.47650	249.26411	887.02563	-772.31946	215.36607	844.11359	-761.11206	209.03378	793.56189	-776.37988	307.27060	816.49432	-732.34650	263.16360	764.44489	-708.06403	220.12062	806.21204	-685.02106	-284.24692	1336.41614	-612.57886	-297.79688	1170.73047	-598.95270	-203.52841	1146.37891	-689.17218	-298.60486	1083.28003	-620.40332	-324.38672	985.06219	-710.71350	-305.93503	920.02124	-686.87671	-347.49924	888.82050	-729.56268	-305.47800	862.02631	-744.94623	-282.69254	815.65619	-748.22925	-283.46606	765.60327	-702.54492	-358.79398	788.61090	-697.19775	-327.80594	729.03827	-696.14417	-270.32080	731.75330	-561.69562	-20.63871	1121.23132	-755.07587	164.90466	1056.52661	-748.66748	-185.45636	1062.65381	-778.43469	151.78415	684.66675	-860.72015	57.55692	598.12915	-824.50867	118.55293	532.75262	-806.68384	10.51776	530.53802	-841.61694	76.37189	316.14810	-760.58862	111.17088	84.08719	-773.87579	9.07769	105.63776	-698.47119	64.82587	47.11730	-932.19434	73.09438	42.40818	-869.51416	35.04983	79.74384	-709.97278	-191.57799	671.98499	-699.13837	-183.90572	519.72675	-694.85333	-72.61353	497.90784	-595.95538	-143.88425	331.34341	-378.10620	-150.19496	180.99002	-441.83032	-65.38020	174.60188	-335.16425	-77.31543	176.82207	-492.63589	-139.29829	41.90905	-480.61002	-105.08470	108.51307																																																																																																																															
